<?xml version="1.0" encoding="UTF-8"?>
<!DOCTYPE svg PUBLIC "-//W3C//DTD SVG 1.1//EN" "http://www.w3.org/Graphics/SVG/1.1/DTD/svg11.dtd">
<!-- Creator: CorelDRAW 2020 (64-Bit) -->
<svg xmlns="http://www.w3.org/2000/svg" xml:space="preserve" width="135.467mm" height="135.467mm" version="1.1" style="shape-rendering:geometricPrecision; text-rendering:geometricPrecision; image-rendering:optimizeQuality; fill-rule:evenodd; clip-rule:evenodd"
viewBox="0 0 13546.66 13546.66"
 xmlns:xlink="http://www.w3.org/1999/xlink"
 xmlns:xodm="http://www.corel.com/coreldraw/odm/2003">
 <defs>
  <style type="text/css">
   <![CDATA[
    .str0 {stroke:white;stroke-width:16.93;stroke-miterlimit:22.9256;stroke-opacity:0.000000}
    .str6 {stroke:#005866;stroke-width:20;stroke-miterlimit:22.9256}
    .str5 {stroke:#008599;stroke-width:20;stroke-miterlimit:22.9256}
    .str4 {stroke:#009AB1;stroke-width:20;stroke-miterlimit:22.9256}
    .str3 {stroke:#E43F6F;stroke-width:20;stroke-miterlimit:22.9256}
    .str2 {stroke:#F56476;stroke-width:20;stroke-miterlimit:22.9256}
    .str1 {stroke:#FF8381;stroke-width:20;stroke-miterlimit:22.9256}
    .fil6 {fill:#005866}
    .fil8 {fill:#005866}
    .fil5 {fill:#008599}
    .fil4 {fill:#009AB1}
    .fil9 {fill:#E0A72F}
    .fil10 {fill:#E3AE3B}
    .fil3 {fill:#E43F6F}
    .fil7 {fill:#EDBD56}
    .fil2 {fill:#F56476}
    .fil1 {fill:#FF8381}
    .fil0 {fill:#BF2024;fill-opacity:0.000000}
   ]]>
  </style>
 </defs>
 <g id="Layer_x0020_1">
  <metadata id="CorelCorpID_0Corel-Layer"/>
  <polygon class="fil0 str0" points="-0,-0.01 13546.67,-0.01 13546.67,13546.66 -0,13546.66 "/>
  <rect class="fil1 str1" x="1927.1" y="1313.97" width="1907.49" height="10903.39" rx="953.74" ry="1376.69"/>
  <rect class="fil1 str1" x="4254.85" y="1424.79" width="1772.9" height="4653.87" rx="886.45" ry="587.61"/>
  <path class="fil2 str2" d="M3834.59 5889.93c0,-638.87 -429.18,-1161.57 -953.74,-1161.57 -524.58,0 -953.75,522.7 -953.75,1161.57l0 2759.82 0 57.3c0,638.87 429.17,1161.56 953.75,1161.56 524.56,0 953.74,-522.69 953.74,-1161.56l0 -57.3 0 -2759.82z"/>
  <rect class="fil3 str3" x="1927.1" y="7736.13" width="1907.49" height="4481.24" rx="953.74" ry="565.81"/>
  <rect class="fil4 str4" x="7534.74" y="7452.69" width="1772.9" height="4653.88" rx="886.45" ry="587.61"/>
  <rect class="fil4 str4" x="9727.91" y="1325.19" width="1907.49" height="10881.01" rx="953.74" ry="1373.86"/>
  <path class="fil5 str5" d="M9727.91 7843.48c0,639.03 429.17,1161.84 953.74,1161.84 524.57,0 953.75,-522.81 953.75,-1161.84l0 -2760.46 0 -57.31c0,-639.02 -429.18,-1161.84 -953.75,-1161.84 -524.57,0 -953.74,522.82 -953.74,1161.84l0 57.31 0 2760.46z"/>
  <rect class="fil6 str6" x="9727.91" y="1313.98" width="1907.49" height="4477.49" rx="953.74" ry="565.34"/>
  <ellipse class="fil4" cx="6773.32" cy="6773.32" rx="1140.9" ry="1140.91"/>
  <rect class="fil4" x="6313.75" y="6007.34" width="306.38" height="306.38"/>
  <rect class="fil4" x="6313.75" y="6313.73" width="306.38" height="306.38"/>
  <rect class="fil7" x="6313.75" y="6620.13" width="306.38" height="306.38"/>
  <rect class="fil8" x="6926.54" y="6007.34" width="306.38" height="306.38"/>
  <rect class="fil5" x="6620.15" y="6007.34" width="306.38" height="306.38"/>
  <rect class="fil9" x="6926.54" y="6620.13" width="306.38" height="306.38"/>
  <rect class="fil10" x="6620.15" y="6620.13" width="306.38" height="306.38"/>
  <rect class="fil1" x="6313.75" y="6926.52" width="306.38" height="306.38"/>
  <rect class="fil1" x="6313.75" y="7232.92" width="306.38" height="306.38"/>
  <rect class="fil2" x="6620.15" y="7232.92" width="306.38" height="306.38"/>
  <rect class="fil3" x="6926.54" y="7232.92" width="306.38" height="306.38"/>
 </g>
</svg>
